<svg xmlns="http://www.w3.org/2000/svg" viewBox="0 0 540 360" role="img" aria-label="Concept B colorways">
  <title>Concept B — 6 colorways</title>
  <rect width="540" height="360" fill="#d4cfc8"/>
  <rect x="1" y="1" width="178" height="118" fill="#faf9f5"/>
  <rect x="181" y="1" width="178" height="118" fill="#faf9f5"/>
  <rect x="361" y="1" width="178" height="118" fill="#cc785c"/>
  <rect x="1" y="121" width="178" height="118" fill="#2a2925"/>
  <rect x="181" y="121" width="178" height="118" fill="#ffffff"/>
  <rect x="361" y="121" width="178" height="118" fill="#f3efe5"/>
  <rect x="1" y="241" width="178" height="118" fill="#faf9f5"/>
  <rect x="181" y="241" width="178" height="118" fill="#f3efe5"/>
  <rect x="361" y="241" width="178" height="118" fill="#191919"/>
  <!-- Scale 0.3125 (50/160). Bar center in 200×160 at (100,78.5) → (31.25,24.5). Cell center (90,60). Translate (58,36) -->
  <!-- R1C1: Peach/Cream -->
  <g transform="translate(58,36) scale(0.3125)">
    <path d="M 59 99 H 139 L 141 85 H 65 L 61 89 V 99 Z" fill="#cc785c"/>
    <path d="M 74.6 80 H 139.6 L 141 70 H 79.5 L 76 73.5 V 80 Z" fill="#cc785c"/>
    <path d="M 88 65 H 140 L 141 58 H 92 L 89 61 V 65 Z" fill="#cc785c"/>
  </g>
  <text x="12" y="114" font-family="monospace" font-size="7" fill="#9b9490">Peach / Cream</text>
  <!-- R1C2: Dark/Cream -->
  <g transform="translate(238,36) scale(0.3125)">
    <path d="M 59 99 H 139 L 141 85 H 65 L 61 89 V 99 Z" fill="#2a2925"/>
    <path d="M 74.6 80 H 139.6 L 141 70 H 79.5 L 76 73.5 V 80 Z" fill="#2a2925"/>
    <path d="M 88 65 H 140 L 141 58 H 92 L 89 61 V 65 Z" fill="#2a2925"/>
  </g>
  <text x="192" y="114" font-family="monospace" font-size="7" fill="#9b9490">Dark / Cream</text>
  <!-- R1C3: Cream/Peach -->
  <g transform="translate(418,36) scale(0.3125)">
    <path d="M 59 99 H 139 L 141 85 H 65 L 61 89 V 99 Z" fill="#faf9f5"/>
    <path d="M 74.6 80 H 139.6 L 141 70 H 79.5 L 76 73.5 V 80 Z" fill="#faf9f5"/>
    <path d="M 88 65 H 140 L 141 58 H 92 L 89 61 V 65 Z" fill="#faf9f5"/>
  </g>
  <text x="372" y="114" font-family="monospace" font-size="7" fill="#faf9f5" opacity="0.7">Cream / Peach</text>
  <!-- R2C1: Cream/Dark -->
  <g transform="translate(58,156) scale(0.3125)">
    <path d="M 59 99 H 139 L 141 85 H 65 L 61 89 V 99 Z" fill="#faf9f5"/>
    <path d="M 74.6 80 H 139.6 L 141 70 H 79.5 L 76 73.5 V 80 Z" fill="#faf9f5"/>
    <path d="M 88 65 H 140 L 141 58 H 92 L 89 61 V 65 Z" fill="#faf9f5"/>
  </g>
  <text x="12" y="234" font-family="monospace" font-size="7" fill="#6b6560">Cream / Dark</text>
  <!-- R2C2: Peach/White -->
  <g transform="translate(238,156) scale(0.3125)">
    <path d="M 59 99 H 139 L 141 85 H 65 L 61 89 V 99 Z" fill="#cc785c"/>
    <path d="M 74.6 80 H 139.6 L 141 70 H 79.5 L 76 73.5 V 80 Z" fill="#cc785c"/>
    <path d="M 88 65 H 140 L 141 58 H 92 L 89 61 V 65 Z" fill="#cc785c"/>
  </g>
  <text x="192" y="234" font-family="monospace" font-size="7" fill="#9b9490">Peach / White</text>
  <!-- R2C3: Peach/Off-cream -->
  <g transform="translate(418,156) scale(0.3125)">
    <path d="M 59 99 H 139 L 141 85 H 65 L 61 89 V 99 Z" fill="#cc785c"/>
    <path d="M 74.6 80 H 139.6 L 141 70 H 79.5 L 76 73.5 V 80 Z" fill="#cc785c"/>
    <path d="M 88 65 H 140 L 141 58 H 92 L 89 61 V 65 Z" fill="#cc785c"/>
  </g>
  <text x="372" y="234" font-family="monospace" font-size="7" fill="#9b9490">Peach / Off-cream</text>
  <!-- R3C1: Black/Cream -->
  <g transform="translate(58,276) scale(0.3125)">
    <path d="M 59 99 H 139 L 141 85 H 65 L 61 89 V 99 Z" fill="#191919"/>
    <path d="M 74.6 80 H 139.6 L 141 70 H 79.5 L 76 73.5 V 80 Z" fill="#191919"/>
    <path d="M 88 65 H 140 L 141 58 H 92 L 89 61 V 65 Z" fill="#191919"/>
  </g>
  <text x="12" y="354" font-family="monospace" font-size="7" fill="#9b9490">Black / Cream</text>
  <!-- R3C2: Peach/Warm -->
  <g transform="translate(238,276) scale(0.3125)">
    <path d="M 59 99 H 139 L 141 85 H 65 L 61 89 V 99 Z" fill="#cc785c"/>
    <path d="M 74.6 80 H 139.6 L 141 70 H 79.5 L 76 73.5 V 80 Z" fill="#cc785c"/>
    <path d="M 88 65 H 140 L 141 58 H 92 L 89 61 V 65 Z" fill="#cc785c"/>
  </g>
  <text x="192" y="354" font-family="monospace" font-size="7" fill="#9b9490">Peach / Warm</text>
  <!-- R3C3: Peach/Black -->
  <g transform="translate(418,276) scale(0.3125)">
    <path d="M 59 99 H 139 L 141 85 H 65 L 61 89 V 99 Z" fill="#cc785c"/>
    <path d="M 74.6 80 H 139.6 L 141 70 H 79.5 L 76 73.5 V 80 Z" fill="#cc785c"/>
    <path d="M 88 65 H 140 L 141 58 H 92 L 89 61 V 65 Z" fill="#cc785c"/>
  </g>
  <text x="372" y="354" font-family="monospace" font-size="7" fill="#6b6560">Peach / Black</text>
  <text x="6" y="11" font-family="monospace" font-size="7" fill="#2a2925">B — Parallel Geometric · Colorways</text>
</svg>
