<svg xmlns="http://www.w3.org/2000/svg" viewBox="0 0 540 360" role="img" aria-label="Concept A colorways">
  <title>Concept A — 6 colorways</title>
  <rect width="540" height="360" fill="#d4cfc8"/>
  <rect x="1" y="1" width="178" height="118" fill="#faf9f5"/>
  <rect x="181" y="1" width="178" height="118" fill="#faf9f5"/>
  <rect x="361" y="1" width="178" height="118" fill="#cc785c"/>
  <rect x="1" y="121" width="178" height="118" fill="#2a2925"/>
  <rect x="181" y="121" width="178" height="118" fill="#ffffff"/>
  <rect x="361" y="121" width="178" height="118" fill="#f3efe5"/>
  <rect x="1" y="241" width="178" height="118" fill="#faf9f5"/>
  <rect x="181" y="241" width="178" height="118" fill="#f3efe5"/>
  <rect x="361" y="241" width="178" height="118" fill="#191919"/>
  <!-- Scale: 80/200=0.4. Mark bounding box in 200×200: ~x=30..169, y=60..144. At 0.4: 12..67.6, 24..57.6 -->
  <!-- Cell 180×120, center (90,60). Per cell translate: (90-12-27.8, 60-24-16.8)=(50.2,19.2)→(50,20) -->
  <!-- R1C1: Peach/Cream -->
  <g transform="translate(50,20) scale(0.4)">
    <path d="M 157.3 59.9 A 70 70 0 1 0 157.3 140.1 L 148.4 130.4 A 53 53 0 1 1 148.4 69.6 Z" fill="#cc785c"/>
    <rect x="148.4" y="140.1" width="21.0" height="3.5" fill="#cc785c"/>
  </g>
  <text x="12" y="114" font-family="monospace" font-size="7" fill="#9b9490">Peach / Cream</text>
  <!-- R1C2: Dark/Cream -->
  <g transform="translate(230,20) scale(0.4)">
    <path d="M 157.3 59.9 A 70 70 0 1 0 157.3 140.1 L 148.4 130.4 A 53 53 0 1 1 148.4 69.6 Z" fill="#2a2925"/>
    <rect x="148.4" y="140.1" width="21.0" height="3.5" fill="#2a2925"/>
  </g>
  <text x="192" y="114" font-family="monospace" font-size="7" fill="#9b9490">Dark / Cream</text>
  <!-- R1C3: Cream/Peach -->
  <g transform="translate(410,20) scale(0.4)">
    <path d="M 157.3 59.9 A 70 70 0 1 0 157.3 140.1 L 148.4 130.4 A 53 53 0 1 1 148.4 69.6 Z" fill="#faf9f5"/>
    <rect x="148.4" y="140.1" width="21.0" height="3.5" fill="#faf9f5"/>
  </g>
  <text x="372" y="114" font-family="monospace" font-size="7" fill="#faf9f5" opacity="0.7">Cream / Peach</text>
  <!-- R2C1: Cream/Dark -->
  <g transform="translate(50,140) scale(0.4)">
    <path d="M 157.3 59.9 A 70 70 0 1 0 157.3 140.1 L 148.4 130.4 A 53 53 0 1 1 148.4 69.6 Z" fill="#faf9f5"/>
    <rect x="148.4" y="140.1" width="21.0" height="3.5" fill="#faf9f5"/>
  </g>
  <text x="12" y="234" font-family="monospace" font-size="7" fill="#6b6560">Cream / Dark</text>
  <!-- R2C2: Peach/White -->
  <g transform="translate(230,140) scale(0.4)">
    <path d="M 157.3 59.9 A 70 70 0 1 0 157.3 140.1 L 148.4 130.4 A 53 53 0 1 1 148.4 69.6 Z" fill="#cc785c"/>
    <rect x="148.4" y="140.1" width="21.0" height="3.5" fill="#cc785c"/>
  </g>
  <text x="192" y="234" font-family="monospace" font-size="7" fill="#9b9490">Peach / White</text>
  <!-- R2C3: Peach/Off-cream -->
  <g transform="translate(410,140) scale(0.4)">
    <path d="M 157.3 59.9 A 70 70 0 1 0 157.3 140.1 L 148.4 130.4 A 53 53 0 1 1 148.4 69.6 Z" fill="#cc785c"/>
    <rect x="148.4" y="140.1" width="21.0" height="3.5" fill="#cc785c"/>
  </g>
  <text x="372" y="234" font-family="monospace" font-size="7" fill="#9b9490">Peach / Off-cream</text>
  <!-- R3C1: Black/Cream -->
  <g transform="translate(50,260) scale(0.4)">
    <path d="M 157.3 59.9 A 70 70 0 1 0 157.3 140.1 L 148.4 130.4 A 53 53 0 1 1 148.4 69.6 Z" fill="#191919"/>
    <rect x="148.4" y="140.1" width="21.0" height="3.5" fill="#191919"/>
  </g>
  <text x="12" y="354" font-family="monospace" font-size="7" fill="#9b9490">Black / Cream</text>
  <!-- R3C2: Peach/Warm -->
  <g transform="translate(230,260) scale(0.4)">
    <path d="M 157.3 59.9 A 70 70 0 1 0 157.3 140.1 L 148.4 130.4 A 53 53 0 1 1 148.4 69.6 Z" fill="#cc785c"/>
    <rect x="148.4" y="140.1" width="21.0" height="3.5" fill="#cc785c"/>
  </g>
  <text x="192" y="354" font-family="monospace" font-size="7" fill="#9b9490">Peach / Warm</text>
  <!-- R3C3: Peach/Black -->
  <g transform="translate(410,260) scale(0.4)">
    <path d="M 157.3 59.9 A 70 70 0 1 0 157.3 140.1 L 148.4 130.4 A 53 53 0 1 1 148.4 69.6 Z" fill="#cc785c"/>
    <rect x="148.4" y="140.1" width="21.0" height="3.5" fill="#cc785c"/>
  </g>
  <text x="372" y="354" font-family="monospace" font-size="7" fill="#6b6560">Peach / Black</text>
  <text x="6" y="11" font-family="monospace" font-size="7" fill="#2a2925">A — Typographic C · Colorways</text>
</svg>
